<svg id="Layer_1" data-name="Layer 1" xmlns="http://www.w3.org/2000/svg" width="256" height="256" viewBox="0 0 256 256"><path d="M132.2,150.6c-.3,0-.4.2-.4.6h-.1a.5.5,0,0,0-.5.5c0,.4.2.6.5.6s.4-.2.4-.6h.1a.5.5,0,0,0,.5-.5C132.7,150.8,132.5,150.6,132.2,150.6Z"/><path d="M133.6,149.8a2,2,0,0,0-.8.8h.3l1.1-.3a3,3,0,0,0,.8-.8h-.3A2.3,2.3,0,0,0,133.6,149.8Z"/><path d="M136.6,147.3c-.2,0-.4.1-.4.5h-.1c-.3,0-.4.2-.4.6h-.1c-.4,0-.5.2-.5.6s.1.5.5.5a.5.5,0,0,0,.4-.5h.1c.3,0,.5-.2.5-.6h0c.4,0,.5-.2.5-.6S137,147.3,136.6,147.3Z"/><path d="M159.7,141.4l-1.3,1.4a1.4,1.4,0,0,0,.8,1,2,2,0,0,0,1.1.2,2.3,2.3,0,0,0,1.4-.4,6.9,6.9,0,0,0,1.1-1.3,9.1,9.1,0,0,0,.7-1.4c.2-.5.4-1.2.5-1.2h-3.4C160.4,139.7,160.1,140.8,159.7,141.4Z"/><path d="M127.7,1.7a126,126,0,1,0,126,126A126,126,0,0,0,127.7,1.7Zm94.4,74.7-1.5.4h-3.7a27.5,27.5,0,0,0-5.1,1.2,12.1,12.1,0,0,0-3.6,1.6,10.3,10.3,0,0,0-2.5,2.1,11.7,11.7,0,0,0-1.7,2.9,24.5,24.5,0,0,0-1.5,3.9c-.5,1.5-1.1,3.1-1.7,5l-1.2,3.4c-.3,1.1-.8,2.1-1.2,3.2s-.9,2-1.4,3.1-1.1,2.1-1.8,3.2a39.4,39.4,0,0,1-2.6,4c-1,1.2-1.9,2.5-2.9,3.6l-3.1,3.6a39.3,39.3,0,0,0-3.1,3.8,9.4,9.4,0,0,0-1.4,2.6l-.9,2.6a9.6,9.6,0,0,1-1.4,2.1,4.8,4.8,0,0,1-2.4,1.6l-1.4.6-2,.6-2,.7-1.3.4a2.8,2.8,0,0,1,.1,2,1.8,1.8,0,0,1-.8.9l-1.2.6a2,2,0,0,0-.9.9l-2.2,6.7a2.7,2.7,0,0,1-1.1,1.5,5.3,5.3,0,0,1-1.7.8,13.6,13.6,0,0,1-2,.2,11.5,11.5,0,0,1-1.9-.1h-.8c-.5,0-.9.2-1.1,0s-.4-.3-.4-.8a.6.6,0,0,1,.1-.4l.2-.2.2-.3a.6.6,0,0,0,.1-.4h0v-.2a26,26,0,0,0-3.4,1.6l-3.3,2.1-3.3,2.1a23.3,23.3,0,0,1-3.4,2,2.9,2.9,0,0,1-.8.4l-1.2.6a3.9,3.9,0,0,0-1,.8,1.8,1.8,0,0,0-.4,1v.6l1.7,1.6,2,1.7a15.6,15.6,0,0,0,2,1.6,11.3,11.3,0,0,0,2.1,1.2,7.5,7.5,0,0,0,1.8.7l1.9.5,1.9.7a5.1,5.1,0,0,1,1.6.9,4.4,4.4,0,0,1,1.3,1.4l1.2,1.5,1.1,1.4a8.6,8.6,0,0,0,1.4,1.3l1.7.6a6.6,6.6,0,0,1,2,.6,5.2,5.2,0,0,1,1.8,1,2.1,2.1,0,0,1,.8,1.7v.5l-5.6,1.1-1.1.4a2,2,0,0,1-1.1.3h-.6l-1.1-.6-1.7-1a12.8,12.8,0,0,1-1.7-1l-1.1-.7-.2-.3-.3-.4-.3-.6-.3-.4-2.2-4.5-1.1-.4-1.8-.8-2.1-.9-2.2-1-1.7-.8-1.1-.6-2.8-1.5a17.8,17.8,0,0,1-2.6-2.2,12.8,12.8,0,0,1-2-2.6,8.7,8.7,0,0,1-1-3.1l-.6.2-.6.3-.8.7-1.7,1.1-2.1,1.4-2.1,1.4-1.8,1.1-.9.5-5.9,3.5a17.7,17.7,0,0,0-4.5,3.4,15.4,15.4,0,0,0-3.6,4.4c-.9,1.7-.7,3.9-2.4,6.5v1.6a9.2,9.2,0,0,0,1.2,4.4,6.5,6.5,0,0,0,2.1,2.5,6,6,0,0,0,2.6,1.4l2.5,1a4.7,4.7,0,0,1,2,1,5.3,5.3,0,0,1,.8,2H102.1c-.1,0-.1-.3-.2-.4s-.3-.1-.4-.2l-.5-.2c-.2-.1-.4-.1-.6-.3a2.9,2.9,0,0,1-1.2-1.5,7.9,7.9,0,0,1-.5-2.2,19.5,19.5,0,0,1,.2-2.3c0-.7.3-1.4.3-2v-1.4a6.9,6.9,0,0,1,.2-1.8,18.1,18.1,0,0,0,.6-2.7c.3-1,.5-2,.8-3.1s.5-2.1.8-3.1.5-1.9.6-2.7.4-1.3.5-1.7.4-1.4.6-2a11.8,11.8,0,0,1,1-1.9,16,16,0,0,0,4.5-2.5,33.4,33.4,0,0,0,3.2-3.3l2.9-3.4a12.4,12.4,0,0,1,3.4-3,3.7,3.7,0,0,1,1.4-.7l2-.8,2.3-1,2.2-1.1a10,10,0,0,0,1.5-1.3,2.5,2.5,0,0,0,.6-1.6v-1.3a1.7,1.7,0,0,0-.6-1.2l-.8-.3-1.1-.5-1.2-.5-.8-.4a9.4,9.4,0,0,1-2-1.2l-2.6-1.9-2.5-1.5a3.4,3.4,0,0,0-1.8-.6h-7.8c-5.9,0-11.7-.1-17.5.1s-11.6.2-17.5.2c-4.4,0-8.6-.1-12.8-.3A102.9,102.9,0,0,1,47,131.7a71.2,71.2,0,0,1-11.9-2.9,65.3,65.3,0,0,1-11.7-5l-1.4-.7-1.5-1a4,4,0,0,1-1.3-1.3,2.4,2.4,0,0,1-.6-1.5,5.9,5.9,0,0,1,2.1.4l2.4.9,2.2.9,1.5.7,4.6,1.6a41,41,0,0,0,5,1.4,30.6,30.6,0,0,0,5.1,1,27.4,27.4,0,0,0,4.8.4H72.6l2.6-.4,3.3-.5,3.6-.6,3.4-.6,2.6-.6,6.9-1.3,7.3-1.6,7.2-2.1A42.4,42.4,0,0,0,116,116l3.8-1.7a30.8,30.8,0,0,1,3.8-1.6,29.7,29.7,0,0,1,3.9-1.3l4.2-1h4.5l1-.2,1.9-.3,3.3-.8,4-.9,4.1-.9c1.2-.2,2.3-.9,3.2-1.1s1.6-.7,1.9-.7h6.5c2.7,0,5.3.5,7.9.7s5.1.5,7.8.5a10,10,0,0,0,5-1.2,19.9,19.9,0,0,0,4.4-3.5,38.1,38.1,0,0,0,3.9-4.9c1.2-1.9,2.2-3.7,3.2-5.6a53.8,53.8,0,0,0,2.5-5.6c.8-1.8,1.3-3.3,1.8-4.7s.8-2.4,1.1-3.5.7-2.1,1-3.1a12.3,12.3,0,0,1,1.2-2.6,8.1,8.1,0,0,1,1.8-1.9,6.8,6.8,0,0,1,2.6-1.6,12,12,0,0,1,3.7-.8h3.1c.7,1.6,1.7.9,2.9,1.3a36.8,36.8,0,0,1,3.5,1.5,14,14,0,0,1,3,1.8,2.9,2.9,0,0,1,1.2,2.2,2,2,0,0,1-.4,1.4A3.6,3.6,0,0,1,222.1,76.4Z"/></svg>