<svg id="Layer_1" data-name="Layer 1" xmlns="http://www.w3.org/2000/svg" width="256" height="256" viewBox="0 0 256 256"><path d="M128,2.7a126,126,0,1,0,126,126A126,126,0,0,0,128,2.7ZM237,117.6h-7.3c-3.1,0-6.1-.2-9.1-.4l-9-1-9-1c-3-.3-6.1-.4-9.1-.4a126.9,126.9,0,0,0-16.2,1,68.1,68.1,0,0,0-15.6,3.6l-30.3,11c-.5.1-.9.7-1.2,1.5a21.3,21.3,0,0,0-.8,2.7l-.6,2.8a8.1,8.1,0,0,1-.6,2,2.7,2.7,0,0,0,1.3,1.3l2.4,1.2,2.9,1.1a11.7,11.7,0,0,1,2.7,1.5,6.3,6.3,0,0,1,2.1,1.8,3.5,3.5,0,0,1,.8,2.4,1.3,1.3,0,0,1-.5,1.2,3.8,3.8,0,0,1-1.2.9l-1.6.7-1.5.8a6.9,6.9,0,0,0-1.3,1.1,2.2,2.2,0,0,0-.4,1.5,3.9,3.9,0,0,0,.7,2.5,7.5,7.5,0,0,0,2,1.5,17.1,17.1,0,0,0,2.3,1.3A7.2,7.2,0,0,1,141,162a11.7,11.7,0,0,1,2,3.4,17.4,17.4,0,0,1,1.3,3.6c.3,1.3.6,2.5.8,3.8s.1,2.6.2,3.9l1.3,1.3v7.1h.9l1,.2,1,.2c.2.1.5.2.5.3a3.2,3.2,0,0,1,.1.8,4.6,4.6,0,0,1-.1,1,5.6,5.6,0,0,1-.4,1.2,1.8,1.8,0,0,1-.6.9c-.2.3-.5.3-.9.3H143c-.2,0-.5-.5-1-.8l-1.5-.8a10.9,10.9,0,0,0-1.5-.8c-.5-.3-.9-.9-1.2-.9h-6.1a4.9,4.9,0,0,1,.7-2.9,3.9,3.9,0,0,1,1.6-1.5,8.6,8.6,0,0,1,2.1-.7l2.1-.3a4.9,4.9,0,0,0,1.6-.6,1.4,1.4,0,0,0,.7-1.4.4.4,0,0,0-.1-.3v-.3c-.2-.4-.4-1-.8-1.8l-1.3-2.4c-.4-.8-1-1.6-1.5-2.4a10.1,10.1,0,0,0-1.5-1.8l-1.3-.8-1.9-.9-1.7-1.1a2.6,2.6,0,0,1-1-1.1c-.3-.8-.6-1.8-.9-2.9a17.3,17.3,0,0,0-1.1-3.2,7.4,7.4,0,0,0-1.7-2.5,3.8,3.8,0,0,0-2.8-1.1,24.7,24.7,0,0,0-6,.8,28.3,28.3,0,0,0-5.7,2.3,23.8,23.8,0,0,0-4.9,3.4,21.1,21.1,0,0,0-3.9,4.5l-.4.2h-.1c-.1,0-.1-.1-.1-.2s-.2-.1-.2-.3-.1-.4-.2-.6a1.1,1.1,0,0,0-.2-.6c0-.2-.1-.3-.1-.4h-.3a1.3,1.3,0,0,0-1,.4,9.4,9.4,0,0,0-.9,1.2l-.8,1.3a4.5,4.5,0,0,1-.9,1,3.2,3.2,0,0,1-.6-1.6,11.3,11.3,0,0,1,.3-4.5l.9-2.8.9-2.5a15.9,15.9,0,0,0,.4-2.8H94.3c0-1.6.2-1.8.6-2.3a6.1,6.1,0,0,1,1.6-1.6,6.7,6.7,0,0,1,2.1-.9l2.1-.3,3,.2,2.9.5,2.9.4a13.7,13.7,0,0,0,2.9.2h2.2a2.3,2.3,0,0,0-1.6-1.4,10.9,10.9,0,0,0-2.5-.4l-2.7-.2c-.9-.1-1.6.1-2.2-.2l-3.8-2.2h-.3a11.4,11.4,0,0,0-3.2,0,15.8,15.8,0,0,1-3.1.1,7.3,7.3,0,0,1-3-.7l-2.6-1.3L87,144a4.8,4.8,0,0,0-2.8-.6v6h1.6a2.5,2.5,0,0,0,.9-.4l.9-.5a3.5,3.5,0,0,1,.9-.6l.6-.2v2.8l2-.7c0,.1.2.3.2.5a4.3,4.3,0,0,0,.1.5,5.2,5.2,0,0,1-1.3,3.8,18.2,18.2,0,0,1-3.2,2.9,20.9,20.9,0,0,0-4.6-1.2l-4.7-.7v-7.7l-1.7.5-2.1,1a14,14,0,0,0-1.8,1.2c-.5.4-1,.8-1,1.1v6.9a9.6,9.6,0,0,0,3-.3l1.8-.6L77,157l1.2-.3h.4l.2.7c.2.4.3.8.5,1.3a9.2,9.2,0,0,1,.6,2.2,7.2,7.2,0,0,1-.4,1.9,8.7,8.7,0,0,1-1.1,1.8,4.7,4.7,0,0,1-1.5,1.3,3.2,3.2,0,0,1-1.8.6H74l-2.9-.4-3.6-.7a10.8,10.8,0,0,1-3.3-1.3,2.5,2.5,0,0,1-1.4-2V150.4l.9-.9,1.9-1.5,2.3-2.2a18.8,18.8,0,0,0,2.4-2.5,31,31,0,0,0,1.8-2.6,6.8,6.8,0,0,0,.7-2.6,3.9,3.9,0,0,0-1.2-2.8,18.9,18.9,0,0,0-2.7-2l-3.3-1.4-2.5-.9-1.3-9a16.8,16.8,0,0,0-.6-2.7,9,9,0,0,0-1.1-2.7,6.8,6.8,0,0,0-1.7-2.1,4.2,4.2,0,0,0-2.7-.9,12.5,12.5,0,0,0-3.6.5,15,15,0,0,0-3.2,1.5l-1.6,1-2.5,1.5-2.9,1.7-3,1.7-2.5,1.7c-.8.4-1.3,1.1-1.6,1.1h-1l-1.7-.2-2.1-.4a4.7,4.7,0,0,1-1.4-.8c-.4-.3-.3-.8-.3-1.3v-1.9c0-.6-.2-.9,0-.9h1.6c0-.1-.1-.2,0-.4a2.8,2.8,0,0,0,.1-.9,2.4,2.4,0,0,0,.2-.8c.1-.3.1-.4,0-.5a2.9,2.9,0,0,0-.7-.8l-.9-.5-.7-.7a1.7,1.7,0,0,1-.3-1.2,2.7,2.7,0,0,1,.3-1.2,2.4,2.4,0,0,1,.6-1.1c.3-.4.3-.7.6-.9l.8-.3v.7c0,.5.5,1,.6,1.5s.7.7,1.2.7a1.7,1.7,0,0,0,1.1-.4,5.4,5.4,0,0,0,.9-1.2,7.7,7.7,0,0,0,.7-1.6c.1-.4.2.3.2-1.4H22.5l-.9-.4-1-.7-.9-.8a1.3,1.3,0,0,1-.4-1,4.8,4.8,0,0,1,1.1-3.2A6.9,6.9,0,0,1,23,100a11.2,11.2,0,0,1,3.1-1l2.8-.8,2.2-1,3.4-1.5,3.3-1.6a8.8,8.8,0,0,1,2.1-1H53.4a8.6,8.6,0,0,1,3.9.9,14.2,14.2,0,0,1,3,2.5,41.9,41.9,0,0,1,2.6,3.3c.7,1.2,1.5,2.3,2.2,3.3a18.9,18.9,0,0,0,2.3,2.5,3.3,3.3,0,0,0,2.4,1c.4,0,.7-.1.8-.4a1.1,1.1,0,0,1,.9-.4l1.5.3,1.5.7,1.5.7a2.7,2.7,0,0,0,1.5.3h4.1l4.1-.5,4-.5,4.1-.2a55.8,55.8,0,0,1,7.2.4,38.9,38.9,0,0,1,7.2,1.6c1.6.5,3.3,1.2,5,1.9l5.1,2.2a50.8,50.8,0,0,0,5.1,1.7,20,20,0,0,0,5.4.7h2.6l12.7-2.7c4.3-.8,8.5-1.6,12.8-2.2s8.5-1.2,12.8-1.6,8.6-.6,13-.6H186l5.4.2a32.1,32.1,0,0,1,5,.9l36.1,7.2h11.6c-.8,0-1.8,1-3.1,1.3A13.3,13.3,0,0,1,237,117.6Z"/></svg>